<?xml version="1.0" encoding="utf-8"?>
<!-- Generator: Adobe Illustrator 19.0.0, SVG Export Plug-In . SVG Version: 6.00 Build 0)  -->
<svg version="1.1" id="Layer_1" xmlns="http://www.w3.org/2000/svg" xmlns:xlink="http://www.w3.org/1999/xlink" x="0px" y="0px"
	 viewBox="0 0 256 256" style="enable-background:new 0 0 256 256;" xml:space="preserve">
<style type="text/css">
	.st0{fill:#F9A520;}
	.st1{fill:#7289D9;}
	.st2{fill:#FCFDFE;}
</style>
<rect class="st0" width="256" height="256"/>
<path class="st1" d="M195.1,235.4c9.4,0,18.7-0.4,28-1.8c3.3-0.5,6.5-1,9.6-2.4c0.7-0.3,1.5-0.8,1.5-1.8c-0.1-0.9-0.8-1.2-1.5-1.5
	c-0.8-0.4-1.7-0.7-2.6-1c-3.3-1-6.6-1.5-10-1.9c-16.6-1.8-33.2-1.8-49.8,0c-4.2,0.5-8.4,1-12.3,2.7c-0.8,0.3-1.8,0.8-1.9,1.8
	c0,1.1,1,1.5,1.8,1.8c3.1,1.3,6.3,1.9,9.6,2.3C176.8,235,185.9,235.4,195.1,235.4z"/>
<path class="st2" d="M194.5,219.9c-13,0-24.5-4.2-34.7-12.2c-8.1-6.3-11.8-15-11.4-25.1c0.2-4.1-1.1-6.9-3.8-9.9
	c-20.4-22.9-42.9-43.7-64.2-65.5c-1.2-1.2-2.3-1.2-3.7-0.8c-5.9,1.7-11.9,2.1-18,1.3c-17.4-2.3-29-12-35.5-28
	c-1.8-4.6-2.8-9.3-2.8-14.2c0-1.3,0.1-2.6,0.5-3.8c0.9-2.8,3.5-3.9,6.1-2.4c1.5,0.9,2.8,2.1,4,3.3c4,3.9,8,7.9,11.9,11.8
	c1.1,1.1,2.1,1.6,3.6,1.2c6.6-1.9,13.3-3.7,19.9-5.5c1.7-0.5,2.6-1.4,3.1-3.1c1.8-6.8,3.7-13.7,5.7-20.5c0.4-1.4-0.2-2.2-1.1-3.1
	c-4.2-4.2-8.4-8.5-12.6-12.8c-0.7-0.7-1.4-1.5-2-2.3c-1.2-1.4-1.9-3-1-4.8c1-1.9,2.6-2.9,4.7-2.8c4.1,0.1,8.3,0.5,12.3,1.7
	c23.6,6.8,37,30.1,30.7,53.9c-0.6,2.4-0.4,3.9,1.4,5.8c18.8,18.6,37.5,37.4,56.2,56.1c4,4,7.8,8.1,11.5,12.3c0.9,1,1.8,1.7,3.2,1.8
	c17.9,0.8,28.8,10.8,34.8,27c0.4,1.2,0.8,2.4,1.2,3.7c2.7,9.6,9.4,14.6,18.8,16.3c0.5,0.1,1.1,0.1,1.6,0.2c0.9,0.2,1,0.6,0.5,1.3
	c-0.2,0.2-0.4,0.4-0.6,0.6c-9.2,9.5-19.8,16.3-33.2,18.3c-0.8,0.1-1.6,0.3-2.5,0.3C197.6,219.9,196,219.9,194.5,219.9z M196.9,208.3
	c6.5,0,11.3-1.1,15.7-3.7c0.9-0.6,2.1-1.2,0.9-2.5c-4.8-5.2-7.5-11.6-10.3-18.1c-5.5-12.7-15.3-19.8-29.3-20.7
	c-2.2-0.1-4.1,0.3-5.6,2.1c-1.5,1.7-3.2,3.4-4.9,4.8c-2.5,2.1-3.5,4.8-4,7.9c-1.1,7.3,1.2,13.4,6.7,18
	C175.3,203.8,186.2,207.7,196.9,208.3z"/>
<path class="st2" d="M195.1,235.4c-9.2,0-18.4-0.4-27.5-1.7c-3.3-0.5-6.5-1-9.6-2.3c-0.8-0.4-1.9-0.7-1.8-1.8c0-1.1,1-1.5,1.9-1.8
	c4-1.6,8.1-2.2,12.3-2.7c16.6-1.8,33.2-1.8,49.8,0c3.4,0.4,6.7,0.9,10,1.9c0.9,0.3,1.7,0.6,2.6,1c0.7,0.3,1.4,0.7,1.5,1.5
	c0.1,1-0.7,1.4-1.5,1.8c-3,1.4-6.3,2-9.6,2.4C213.8,235,204.5,235.4,195.1,235.4z"/>
</svg>
