<?xml version="1.0" encoding="utf-8"?>
<!-- Generator: Adobe Illustrator 19.0.0, SVG Export Plug-In . SVG Version: 6.00 Build 0)  -->
<svg version="1.1" id="Layer_1" xmlns="http://www.w3.org/2000/svg" xmlns:xlink="http://www.w3.org/1999/xlink" x="0px" y="0px"
	 viewBox="-63 65 128 128" style="enable-background:new -63 65 128 128;" xml:space="preserve">
<style type="text/css">
	.st0{fill:#737E8C;}
	.st1{display:none;}
	.st2{display:inline;opacity:0.24;fill:none;stroke:#FFFFFF;stroke-miterlimit:10;enable-background:new    ;}
	.st3{display:inline;opacity:0.2;}
	.st4{opacity:0.1;enable-background:new    ;}
	.st5{fill:#FFFFFF;}
	.st6{fill:none;stroke:#FFFFFF;stroke-width:5;stroke-miterlimit:10;}
	.st7{display:none;opacity:0.14;enable-background:new    ;}
	.st8{fill-rule:evenodd;clip-rule:evenodd;fill:#FFFFFF;}
</style>
<g id="Layer_2_1_">
	<g id="Layer_1_1_">
		<rect id="XMLID_2_" x="-63" y="65" class="st0" width="128" height="128"/>
	</g>
</g>
<g id="Layer_4" class="st1">
	<line class="st2" x1="-126" y1="130" x2="2" y2="258"/>
</g>
<g id="Layer_1_2_" class="st1">
	<g id="Layer_2" class="st3">
		
			<rect x="-63.1" y="179.4" transform="matrix(0.7071 0.7071 -0.7071 0.7071 127.5094 100.9475)" class="st4" width="10" height="50"/>
		<g>
			<path class="st5" d="M-22.8,172.5l-17.7-17.7c-1-1-1-2.6,0-3.5l0,0c1-1,2.6-1,3.5,0l17.7,17.7c1,1,1,2.6,0,3.5l0,0
				C-20.3,173.5-21.8,173.5-22.8,172.5z"/>
			
				<rect x="-41.2" y="160.8" transform="matrix(0.7071 0.7071 -0.7071 0.7071 109.409 77.3792)" class="st5" width="5" height="20"/>
			<path class="st5" d="M-33.4,197.2l-31.8-31.8c-1-1-1-2.6,0-3.5l0,0c1-1,2.6-1,3.5,0l31.8,31.8c1,1,1,2.6,0,3.5l0,0
				C-30.9,198.2-32.5,198.2-33.4,197.2z"/>
			<path class="st6" d="M-75.9,222L-90,207.9c-2-2-2-5.1,0-7.1l31.8-31.8l21.2,21.2L-68.8,222C-70.7,223.9-73.9,223.9-75.9,222z"/>
			<path class="st6" d="M-92.3,227.9l-3.5-3.5c-2-2-2-5.1,0-7.1l7.6-7.6l10.6,10.6l-7.6,7.6C-87.2,229.8-90.4,229.8-92.3,227.9z"/>
			<path class="st6" d="M-89.6,218.1"/>
			<path class="st6" d="M-93.8,222.2"/>
			<path class="st6" d="M-86.1,221.6"/>
			<path class="st6" d="M-90.2,225.8"/>
			<path class="st5" d="M-104.7,236.7L-104.7,236.7c-1-1-1-2.6,0-3.5l8.8-8.8l3.5,3.5l-8.8,8.8
				C-102.2,237.7-103.7,237.7-104.7,236.7z"/>
			<path class="st5" d="M-79.4,207.8l-8.8-8.8l3.5-3.5l8.8,8.8c1,1,1,2.6,0,3.5l0,0C-76.8,208.8-78.4,208.8-79.4,207.8z"/>
			<path class="st6" d="M-81.1,202.5"/>
			<path class="st6" d="M-88.2,209.6"/>
			<path class="st5" d="M-72.3,200.8l-8.8-8.8l3.5-3.5l8.8,8.8c1,1,1,2.6,0,3.5l0,0C-69.8,201.8-71.3,201.8-72.3,200.8z"/>
			<path class="st5" d="M-65.2,193.7l-8.8-8.8l3.5-3.5l8.8,8.8c1,1,1,2.6,0,3.5l0,0C-62.7,194.7-64.3,194.7-65.2,193.7z"/>
			<path class="st5" d="M-58.2,186.6l-8.8-8.8l3.5-3.5l8.8,8.8c1,1,1,2.6,0,3.5l0,0C-55.6,187.6-57.2,187.6-58.2,186.6z"/>
		</g>
	</g>
</g>
<path class="st7" d="M44.8,186.4c-14.6-12.8-12.6-37.8-12.6-37.8S20.9,137.1,19,136.4c-3.8-1.5,7.5,9.2,9,20.5
	C30.9,178.2,41,186.4,44.8,186.4z"/>
<g id="XMLID_3_">
	<path id="XMLID_25_" class="st8" d="M1,77.8c-29,0-52.5,23.5-52.5,52.5c0,23.2,15,42.9,35.9,49.8c2.6,0.5,3.6-1.1,3.6-2.5
		c0-1.3,0-5.4-0.1-9.8c-14.6,3.2-17.7-6.2-17.7-6.2c-2.4-6.1-5.8-7.7-5.8-7.7c-4.8-3.3,0.4-3.2,0.4-3.2c5.3,0.4,8,5.4,8,5.4
		c4.7,8,12.3,5.7,15.3,4.4c0.5-3.4,1.8-5.7,3.3-7c-11.7-1.3-23.9-5.8-23.9-25.9c0-5.7,2.1-10.4,5.4-14.1c-0.5-1.3-2.3-6.7,0.5-13.9
		c0,0,4.4-1.4,14.4,5.4c4.2-1.2,8.7-1.7,13.1-1.8c4.5,0,9,0.6,13.1,1.8c10-6.8,14.4-5.4,14.4-5.4c2.9,7.2,1.1,12.6,0.5,13.9
		c3.4,3.7,5.4,8.4,5.4,14.1c0,20.2-12.3,24.6-24,25.9c1.9,1.6,3.6,4.8,3.6,9.7c0,7-0.1,12.7-0.1,14.4c0,1.4,0.9,3,3.6,2.5
		c20.8-6.9,35.9-26.6,35.9-49.8C53.5,101.3,30,77.8,1,77.8z"/>
	<path id="XMLID_22_" class="st5" d="M-31.6,153.2c-0.1,0.3-0.5,0.3-0.9,0.2c-0.4-0.2-0.6-0.5-0.5-0.8c0.1-0.3,0.5-0.3,0.9-0.2
		C-31.7,152.5-31.5,152.9-31.6,153.2L-31.6,153.2z M-32.2,152.7"/>
	<path id="XMLID_19_" class="st5" d="M-29.5,155.5c-0.3,0.2-0.7,0.1-1.1-0.2c-0.3-0.4-0.4-0.9-0.2-1.1c0.3-0.2,0.7-0.1,1.1,0.2
		C-29.3,154.8-29.2,155.3-29.5,155.5L-29.5,155.5z M-30,155"/>
	<path id="XMLID_16_" class="st5" d="M-27.4,158.6c-0.3,0.2-0.8,0-1.2-0.5c-0.3-0.5-0.3-1,0-1.3c0.3-0.2,0.8,0,1.2,0.4
		C-27.1,157.8-27.1,158.3-27.4,158.6L-27.4,158.6z M-27.4,158.6"/>
	<path id="XMLID_13_" class="st5" d="M-24.6,161.5c-0.3,0.3-0.9,0.2-1.3-0.2c-0.5-0.4-0.6-1-0.3-1.3c0.3-0.3,0.9-0.2,1.4,0.2
		C-24.4,160.6-24.3,161.2-24.6,161.5L-24.6,161.5z M-24.6,161.5"/>
	<path id="XMLID_10_" class="st5" d="M-20.7,163.2c-0.1,0.4-0.7,0.6-1.3,0.4c-0.6-0.2-1-0.7-0.9-1.1c0.1-0.4,0.7-0.6,1.3-0.4
		C-20.9,162.3-20.5,162.8-20.7,163.2L-20.7,163.2z M-20.7,163.2"/>
	<path id="XMLID_7_" class="st5" d="M-16.4,163.5c0,0.4-0.5,0.8-1.1,0.8c-0.6,0-1.1-0.3-1.1-0.8c0-0.4,0.5-0.8,1.1-0.8
		C-16.9,162.7-16.4,163.1-16.4,163.5L-16.4,163.5z M-16.4,163.5"/>
	<path id="XMLID_4_" class="st5" d="M-12.4,162.8c0.1,0.4-0.4,0.9-1,1c-0.6,0.1-1.2-0.1-1.3-0.6c-0.1-0.4,0.4-0.9,1-1
		C-13,162.1-12.4,162.4-12.4,162.8L-12.4,162.8z M-12.4,162.8"/>
</g>
</svg>
