<?xml version="1.0" encoding="utf-8"?>
<!-- Generator: Adobe Illustrator 19.0.0, SVG Export Plug-In . SVG Version: 6.00 Build 0)  -->
<svg version="1.1" xmlns="http://www.w3.org/2000/svg" xmlns:xlink="http://www.w3.org/1999/xlink" x="0px" y="0px"
	 viewBox="0 0 128 128" style="enable-background:new 0 0 128 128;" xml:space="preserve">
<style type="text/css">
	.st0{opacity:0.1;}
	.st1{fill:#FFFFFF;}
	.st2{fill:none;stroke:#FFFFFF;stroke-width:5;stroke-miterlimit:10;}
</style>
<g id="Layer_1">
</g>
<g id="Layer_2">
	<rect x="62.9" y="49.4" transform="matrix(0.7071 0.7071 -0.7071 0.7071 72.4947 -26.2255)" class="st0" width="10" height="50"/>
	<g>
		<path class="st1" d="M103.2,42.5L85.5,24.8c-1-1-1-2.6,0-3.5l0,0c1-1,2.6-1,3.5,0L106.7,39c1,1,1,2.6,0,3.5l0,0
			C105.7,43.5,104.2,43.5,103.2,42.5z"/>
		<rect x="84.8" y="30.7" transform="matrix(0.7071 0.7071 -0.7071 0.7071 54.361 -49.7803)" class="st1" width="5" height="20"/>
		<path class="st1" d="M92.6,67.2L60.8,35.4c-1-1-1-2.6,0-3.5l0,0c1-1,2.6-1,3.5,0l31.8,31.8c1,1,1,2.6,0,3.5l0,0
			C95.1,68.2,93.5,68.2,92.6,67.2z"/>
		<path class="st2" d="M50.1,92L36,77.9c-2-2-2-5.1,0-7.1L67.8,39L89,60.2L57.2,92C55.3,93.9,52.1,93.9,50.1,92z"/>
		<path class="st2" d="M33.7,97.9l-3.5-3.5c-2-2-2-5.1,0-7.1l7.6-7.6l10.6,10.6l-7.6,7.6C38.8,99.8,35.6,99.8,33.7,97.9z"/>
		<path class="st2" d="M36.4,88.1"/>
		<path class="st2" d="M32.2,92.2"/>
		<path class="st2" d="M39.9,91.6"/>
		<path class="st2" d="M35.8,95.8"/>
		<path class="st1" d="M21.3,106.7L21.3,106.7c-1-1-1-2.6,0-3.5l8.8-8.8l3.5,3.5l-8.8,8.8C23.8,107.7,22.3,107.7,21.3,106.7z"/>
		<path class="st1" d="M46.6,77.8L37.8,69l3.5-3.5l8.8,8.8c1,1,1,2.6,0,3.5h0C49.2,78.8,47.6,78.8,46.6,77.8z"/>
		<path class="st2" d="M44.9,72.5"/>
		<path class="st2" d="M37.8,79.6"/>
		<path class="st1" d="M53.7,70.8l-8.8-8.8l3.5-3.5l8.8,8.8c1,1,1,2.6,0,3.5h0C56.2,71.8,54.7,71.8,53.7,70.8z"/>
		<path class="st1" d="M60.8,63.7l-8.8-8.8l3.5-3.5l8.8,8.8c1,1,1,2.6,0,3.5v0C63.3,64.7,61.7,64.7,60.8,63.7z"/>
		<path class="st1" d="M67.8,56.6L59,47.8l3.5-3.5l8.8,8.8c1,1,1,2.6,0,3.5l0,0C70.4,57.6,68.8,57.6,67.8,56.6z"/>
	</g>
</g>
</svg>
