<?xml version="1.0" encoding="utf-8"?>
<!-- Generator: Adobe Illustrator 19.0.0, SVG Export Plug-In . SVG Version: 6.00 Build 0)  -->
<svg version="1.1" id="Layer_1" xmlns="http://www.w3.org/2000/svg" xmlns:xlink="http://www.w3.org/1999/xlink" x="0px" y="0px"
	 viewBox="-63 65 128 128" style="enable-background:new -63 65 128 128;" xml:space="preserve">
<style type="text/css">
	.st0{fill:#41B481;}
	.st1{display:none;}
	.st2{display:inline;opacity:0.24;fill:none;stroke:#FFFFFF;stroke-miterlimit:10;enable-background:new    ;}
	.st3{display:inline;opacity:0.2;}
	.st4{opacity:0.1;enable-background:new    ;}
	.st5{fill:#FFFFFF;}
	.st6{fill:none;stroke:#FFFFFF;stroke-width:5;stroke-miterlimit:10;}
	.st7{display:none;opacity:0.14;enable-background:new    ;}
	.st8{opacity:0.14;enable-background:new    ;}
	.st9{fill:none;stroke:#FFFFFF;stroke-width:3;stroke-linecap:round;stroke-linejoin:round;stroke-miterlimit:10;}
</style>
<g id="Layer_2_1_">
	<g id="Layer_1_1_">
		<rect x="-63" y="65.3" class="st0" width="128" height="128"/>
	</g>
</g>
<g id="Layer_4" class="st1">
	<line class="st2" x1="-126" y1="130" x2="2" y2="258"/>
</g>
<g id="Layer_1_2_" class="st1">
	<g id="Layer_2" class="st3">
		
			<rect x="-63.1" y="179.4" transform="matrix(0.7071 0.7071 -0.7071 0.7071 127.5094 100.9475)" class="st4" width="10" height="50"/>
		<g>
			<path class="st5" d="M-22.8,172.5l-17.7-17.7c-1-1-1-2.6,0-3.5l0,0c1-1,2.6-1,3.5,0l17.7,17.7c1,1,1,2.6,0,3.5l0,0
				C-20.3,173.5-21.8,173.5-22.8,172.5z"/>
			
				<rect x="-41.2" y="160.8" transform="matrix(0.7071 0.7071 -0.7071 0.7071 109.409 77.3792)" class="st5" width="5" height="20"/>
			<path class="st5" d="M-33.4,197.2l-31.8-31.8c-1-1-1-2.6,0-3.5l0,0c1-1,2.6-1,3.5,0l31.8,31.8c1,1,1,2.6,0,3.5l0,0
				C-30.9,198.2-32.5,198.2-33.4,197.2z"/>
			<path class="st6" d="M-75.9,222L-90,207.9c-2-2-2-5.1,0-7.1l31.8-31.8l21.2,21.2L-68.8,222C-70.7,223.9-73.9,223.9-75.9,222z"/>
			<path class="st6" d="M-92.3,227.9l-3.5-3.5c-2-2-2-5.1,0-7.1l7.6-7.6l10.6,10.6l-7.6,7.6C-87.2,229.8-90.4,229.8-92.3,227.9z"/>
			<path class="st6" d="M-89.6,218.1"/>
			<path class="st6" d="M-93.8,222.2"/>
			<path class="st6" d="M-86.1,221.6"/>
			<path class="st6" d="M-90.2,225.8"/>
			<path class="st5" d="M-104.7,236.7L-104.7,236.7c-1-1-1-2.6,0-3.5l8.8-8.8l3.5,3.5l-8.8,8.8
				C-102.2,237.7-103.7,237.7-104.7,236.7z"/>
			<path class="st5" d="M-79.4,207.8l-8.8-8.8l3.5-3.5l8.8,8.8c1,1,1,2.6,0,3.5l0,0C-76.8,208.8-78.4,208.8-79.4,207.8z"/>
			<path class="st6" d="M-81.1,202.5"/>
			<path class="st6" d="M-88.2,209.6"/>
			<path class="st5" d="M-72.3,200.8l-8.8-8.8l3.5-3.5l8.8,8.8c1,1,1,2.6,0,3.5l0,0C-69.8,201.8-71.3,201.8-72.3,200.8z"/>
			<path class="st5" d="M-65.2,193.7l-8.8-8.8l3.5-3.5l8.8,8.8c1,1,1,2.6,0,3.5l0,0C-62.7,194.7-64.3,194.7-65.2,193.7z"/>
			<path class="st5" d="M-58.2,186.6l-8.8-8.8l3.5-3.5l8.8,8.8c1,1,1,2.6,0,3.5l0,0C-55.6,187.6-57.2,187.6-58.2,186.6z"/>
		</g>
	</g>
</g>
<path class="st7" d="M44.8,186.4c-14.6-12.8-12.6-37.8-12.6-37.8S20.9,137.1,19,136.4c-3.8-1.5,7.5,9.2,9,20.5
	C30.9,178.2,41,186.4,44.8,186.4z"/>
<polygon class="st4" points="5,101.2 5,90.9 21.2,107.1 21.2,117.4 "/>
<polygon class="st8" points="-31,137.3 5,101.2 21.2,117.4 -14.6,152.7 "/>
<polygon class="st4" points="11.6,152 21.7,141.9 40.1,157.5 43.4,181.7 48.2,188.4 67.5,196.9 78.3,204.1 59.5,208.3 32.7,196.2 
	25.9,181.9 25.5,165.3 "/>
<polygon class="st8" points="5,157.5 24.3,136.4 13.3,125.3 -7,145.6 "/>
<polygon class="st4" points="-19.3,82.2 -19.3,93.3 -3.1,109.4 -3.1,97.2 "/>
<polygon class="st4" points="16.8,120.6 15.1,125.8 25.1,137.4 25.9,131.4 "/>
<polygon class="st4" points="-39.1,101.8 -39.1,112.9 -22.9,128.9 -22.9,116.7 "/>
<polyline class="st9" points="15.1,147.4 5.1,157.4 -7,145.6 "/>
<line class="st9" x1="-22.9" y1="129.2" x2="-39" y2="113"/>
<polyline class="st9" points="21.2,117.4 5,101.2 -13,119.3 -31.1,137.3 -14.9,153.5 3.1,135.4 "/>
<line class="st9" x1="3.1" y1="135.4" x2="21.2" y2="117.4"/>
<polyline class="st9" points="13.3,125.3 25.1,137.4 15.1,147.4 "/>
<polygon class="st9" points="-3.1,109.4 -19.3,93.3 -19.3,82.2 -3.1,98.3 "/>
<polygon class="st9" points="-23,129.2 -39.2,113.1 -39.2,102 -23,118.1 "/>
<path class="st9" d="M11,151.5c8.6,8,14.1,10.1,14.9,15.5c1.5,10.3-1.3,13.7,3.5,24c4.9,10.3,22.7,14.3,22.7,14.3"/>
<path class="st9" d="M21.7,141.4c7,7,15.5,11.9,17.7,16.1c4.8,9.2,0.1,15.9,4.9,26.3s30.5,14.8,30.5,14.8"/>
<polyline class="st9" points="-2.6,98.7 5,91.3 5,101.2 5,91.3 21.2,107.3 21.2,117.2 "/>
<path class="st9" d="M-2.6,98.7"/>
<line class="st9" x1="-22.9" y1="118.4" x2="-8.3" y2="104.2"/>
<polyline class="st9" points="-31.1,137.1 -31.1,127.1 -28.4,123.7 "/>
<polyline class="st9" points="16.8,121.8 25.3,131.1 25.3,137 "/>
</svg>
